<svg id="Layer_1" data-name="Layer 1" xmlns="http://www.w3.org/2000/svg" viewBox="0 0 96 96"><defs><style>.cls-1{fill:#408eba;}</style></defs><title>phone-inc</title><g id="_Group_" data-name="&lt;Group&gt;"><path id="_Compound_Path_" data-name="&lt;Compound Path&gt;" class="cls-1" d="M90.72,0,60.78,30V4.79H53.26v37.7H91.2V35.14H65.74L96,5.11,90.72,0Zm-72,11C10.2,14.7,2.67,21.88.59,28.27-3.57,41.05,15.32,65.81,23,73.32c7.52,7.51,32.5,26.36,45.14,22,6.4-2.08,13.45-9.74,17.13-18.21l-25-14.54c-6.24,7.67-7.2,13.58-7,15.34a58.12,58.12,0,0,1-21-13.9A58.21,58.21,0,0,1,18.2,43.29c1.76.16,7.52-.8,15.21-7.19Z" transform="translate(0 0)"/></g></svg>