<?xml version="1.0" encoding="utf-8"?>
<!-- Generator: Adobe Illustrator 20.1.0, SVG Export Plug-In . SVG Version: 6.00 Build 0)  -->
<svg version="1.1" id="Layer_1" xmlns="http://www.w3.org/2000/svg" xmlns:xlink="http://www.w3.org/1999/xlink" x="0px" y="0px"
	 viewBox="0 0 160 160" style="enable-background:new 0 0 160 160;" xml:space="preserve">
<style type="text/css">
	.st0{fill:#827977;}
	.st1{fill:#7B7270;}
	.st2{clip-path:url(#SVGID_1_);}
	.st3{fill:#2A2D34;}
	.st4{fill:#D9A78C;}
	.st5{fill:#EAC0A7;}
	.st6{fill:#F2D7BC;}
	.st7{fill:#690102;}
	.st8{fill:#2F343A;}
	.st9{fill:#B9C7D0;}
	.st10{fill:#129E95;}
	.st11{fill:#3A404C;}
	.st12{fill:#FFFFFF;}
</style>
<g id="men_3">
	<g>
		<ellipse class="st0" cx="79.6" cy="79.8" rx="79.6" ry="79.8"/>
		<path class="st1" d="M159.1,79.8C159.1,35.7,123.5,0,79.6,0v159.7C123.5,159.7,159.1,123.9,159.1,79.8z"/>
	</g>
	<g>
		<defs>
			<ellipse id="SVGID_3_" cx="79.6" cy="79.8" rx="79.6" ry="79.8"/>
		</defs>
		<clipPath id="SVGID_1_">
			<use xlink:href="#SVGID_3_"  style="overflow:visible;"/>
		</clipPath>
		<g class="st2">
			<g>
				<path class="st3" d="M94,115.2c0,0,22.2,3.2,25.4,6.7c2.8,3,8.8,31.5,10.1,37.8c-38.9,0-50,0-50,0v-40.5L94,115.2z"/>
				<rect x="67.9" y="100.5" class="st4" width="23.3" height="25.6"/>
				<g>
					<path class="st5" d="M79.6,26.6c11.3,0,29.2,6.5,29.2,36.7c0,17.5-5.7,28.9-8.1,32.1c-2.3,2.9-15.1,9.1-21.1,9.1
						C79.6,73.9,79.6,26.6,79.6,26.6z"/>
					<path class="st5" d="M114.4,70.5c0.5-4.8-1.8-9.1-5.1-9.6c-3.3-0.5-6.4,3.1-6.9,7.9c-0.5,4.8,1.8,9.1,5.1,9.6
						C110.8,78.9,113.9,75.3,114.4,70.5z"/>
				</g>
				<g>
					<path class="st6" d="M79.6,26.6c-11.3,0-29.2,6.5-29.2,36.7c0,17.5,5.7,28.9,8.1,32.1c2.3,2.9,15.1,9.1,21.1,9.1
						C79.6,73.9,79.6,26.6,79.6,26.6z"/>
					<path class="st6" d="M44.7,70.5c-0.5-4.8,1.8-9.1,5.1-9.6c3.3-0.5,6.4,3.1,6.9,7.9c0.5,4.8-1.8,9.1-5.1,9.6
						C48.3,78.9,45.2,75.3,44.7,70.5z"/>
				</g>
				<path class="st7" d="M64.3,32.9c0,0-9.9,11.8-6.1,22.7c0.6,13.1-0.6,17.5-4.8,21.1c1.1-12.7-0.2-16.9-4.8-15.4
					C46.7,51.4,50.7,24.7,64.3,32.9z"/>
				<path class="st7" d="M94.7,32.9c0,0,9.9,11.8,6.1,22.7c-0.6,13.1,0.6,17.5,4.8,21.1c-1.1-12.7,0.2-16.9,4.8-15.4
					C112.4,51.4,108.3,24.7,94.7,32.9z"/>
				<path class="st8" d="M65.1,115.2c0,0-22.2,3.2-25.4,6.7c-2.8,3-8.8,31.5-10.1,37.8c38.9,0,50,0,50,0v-40.5L65.1,115.2z"/>
				<polyline class="st9" points="94.3,114.6 79.6,117.7 64.8,114.6 79.6,159.7 				"/>
				<polygon class="st10" points="78.3,123.7 75.9,154.2 79.6,159.7 83.2,154.2 80.8,123.7 				"/>
				<path class="st11" d="M68.9,134.1l-11.7-17.5c3.2-1.2,6.7-2,10.3-2.6l12.1,45.7l-16.9-24.3L68.9,134.1z"/>
				<path class="st11" d="M90.2,134.1l11.7-17.5c-3.2-1.2-6.7-2-10.3-2.6l-12.1,45.7l16.9-24.3L90.2,134.1z"/>
				<path class="st10" d="M83.5,121.8l-4,4.1l-4-4.1l4-4.1L83.5,121.8z"/>
				<polygon class="st12" points="79.6,117.7 91.4,111.7 97.5,115.2 84.8,125.4 				"/>
				<polygon class="st12" points="79.6,117.7 67.7,111.7 61.6,115.2 74.1,125.4 				"/>
			</g>
			<path class="st7" d="M107.5,38.1c-4.7-19.2-33-34.3-52.9-4.1c-1.3,5.9,4.3,8.7,4.3,8.7S62.5,34,79.6,38
				c8.5-1.9,16.8-3.3,20.6,4.6C104,50.5,107.5,38.1,107.5,38.1z"/>
			<path class="st7" d="M96.3,91.5c-5.8,0-10-4.8-16.7-4.8c-6.7,0-10.9,4.8-16.7,4.8c-6.4,0-10.4-11.1-11.7-15
				c1.7,11.2,5.4,18.5,7.3,20.9c2.3,2.9,15.1,9.1,21.1,9.1h0l0,0c6,0,18.8-6.2,21.1-9.1c1.9-2.4,5.7-9.8,7.3-21
				C106.7,80.4,102.7,91.5,96.3,91.5z"/>
		</g>
	</g>
</g>
</svg>
