<?xml version="1.0" encoding="utf-8"?>
<!-- Generator: Adobe Illustrator 20.1.0, SVG Export Plug-In . SVG Version: 6.00 Build 0)  -->
<svg version="1.1" id="Layer_1" xmlns="http://www.w3.org/2000/svg" xmlns:xlink="http://www.w3.org/1999/xlink" x="0px" y="0px"
	 viewBox="0 0 160 160" style="enable-background:new 0 0 160 160;" xml:space="preserve">
<style type="text/css">
	.st0{fill:#29A69C;}
	.st1{fill:#27A096;}
	.st2{clip-path:url(#SVGID_1_);}
	.st3{fill:#482B1B;}
	.st4{fill:#EAC8AD;}
	.st5{fill:#F2D7BC;}
	.st6{fill:#EAC0A7;}
	.st7{fill:#FAA21C;}
	.st8{fill:#F68E1F;}
	.st9{fill:#39B54A;}
</style>
<g id="women_1_1_">
	<g>
		<ellipse class="st0" cx="80" cy="80" rx="80" ry="80"/>
		<path class="st1" d="M160,80c0-44.2-35.8-80-80-80v160C124.2,160,160,124.2,160,80z"/>
	</g>
	<g id="women_1">
		<defs>
			<ellipse id="SVGID_3_" cx="80" cy="80" rx="80" ry="80"/>
		</defs>
		<clipPath id="SVGID_1_">
			<use xlink:href="#SVGID_3_"  style="overflow:visible;"/>
		</clipPath>
		<g class="st2">
			<g>
				<g>
					<g>
						<g>
							<ellipse class="st3" cx="80" cy="51.9" rx="35" ry="35"/>
							<polygon class="st4" points="91.7,126.9 79.9,160.1 68.3,126.9 68.3,101.2 91.7,101.2 							"/>
							<g>
								<path class="st5" d="M80,30c-11.4,0-29.4,6.5-29.4,36.8c0,17.5,6.8,25.7,9.3,28.9C62.2,98.6,74,108,80,108
									C80,77.4,80,30,80,30z"/>
								<path class="st5" d="M45,74c-0.5-4.8,1.8-9.1,5.2-9.6c3.3-0.5,6.5,3.1,7,7.9c0.5,4.8-1.8,9.1-5.2,9.6
									C48.6,82.4,45.5,78.8,45,74z"/>
							</g>
							<g>
								<g>
									<g>
										<path class="st6" d="M79.9,30c11.4,0,29.4,6.5,29.4,36.8c0,17.5-6.8,25.7-9.3,28.9c-2.3,2.9-14,12.3-20.1,12.3
											C79.9,77.4,79.9,30,79.9,30z"/>
									</g>
									<g>
										<path class="st6" d="M115,74c0.5-4.8-1.8-9.1-5.2-9.6c-3.3-0.5-6.5,3.1-7,7.9c-0.5,4.8,1.8,9.1,5.2,9.6
											C111.4,82.4,114.5,78.8,115,74z"/>
									</g>
								</g>
							</g>
							<path class="st4" d="M79.9,160.1v-32c0,0-8.7-2.2-10.7-9.2c-0.9-3.4-0.9-6.1-0.9-6.1s-19.1,6.5-23.4,13.1
								c-3.6,10.6-4.5,34.3-4.5,34.3H79.9z"/>
							<path class="st4" d="M79.9,160.1v-32c0,0,8.7-2.2,10.7-9.2c0.9-3.4,0.9-6.1,0.9-6.1s19.1,6.5,23.4,13.1
								c3.6,10.6,4.5,34.3,4.5,34.3H79.9z"/>
							<path class="st4" d="M79.9,160.1v-32c0,0-8.7-2.2-10.7-9.2c-0.9-3.4-0.9-6.1-0.9-6.1s-19.1,6.5-23.4,13.1
								c-3.6,10.6-4.5,34.3-4.5,34.3H79.9z"/>
							<path class="st4" d="M79.9,160.1v-32c0,0,8.7-2.2,10.7-9.2c0.9-3.4,0.9-6.1,0.9-6.1s19.1,6.5,23.4,13.1
								c3.6,10.6,4.5,34.3,4.5,34.3H79.9z"/>
						</g>
						<path class="st3" d="M78.3,21.3c-20.8,0-27.1,18.2-27.1,26.6c-7.5,10.5,0.7,19.9,6.5,23.1c0-1.9,0-2.7,0-5.2
							c0-6.8,6.4-13,16.1-12c8.7,0.9,14.1-4,18.7-12.3C98.3,30.4,91.2,21.3,78.3,21.3z"/>
						<path class="st3" d="M91.7,38.1c0,0,4.9,19.7,18.2,26.3c2.4-17.7,3.8-14,0-23.3c-3.8-9.3-18.2-16.3-18.2-16.3V38.1z"/>
					</g>
				</g>
			</g>
			<path class="st7" d="M114.8,125.9c-3.6-5.6-17.4-11-21.9-12.6c-0.3,6.9-6,12.5-13,12.5c-7,0-12.7-5.6-13-12.5
				c-4.5,1.6-18.4,7.1-21.9,12.6c-3.6,10.6-4.5,34.3-4.5,34.3h39.5h39.5C119.3,160.1,118.3,136.4,114.8,125.9z"/>
			<path class="st8" d="M119.3,160.1c0,0-1-23.7-4.5-34.3c-3.6-5.6-17.4-11-21.9-12.6c-0.3,6.9-6,12.5-13,12.5v34.4H119.3z"/>
			<path class="st9" d="M62.6,114.9c1.3,8.4,8.5,14.8,17.3,14.8c8.7,0,16-6.4,17.3-14.8c-1.8-0.7-3.3-1.3-4.3-1.7
				c-0.3,6.9-6,12.5-13,12.5c-7,0-12.7-5.6-13-12.5C65.8,113.6,64.3,114.2,62.6,114.9z"/>
			<circle class="st3" cx="80" cy="16.9" r="11.7"/>
		</g>
	</g>
</g>
</svg>
